<svg width="1024" height="1024" viewBox="0 0 1024 1024" fill="none" xmlns="http://www.w3.org/2000/svg">
<path d="M942.5 273.688H758C732.526 273.688 711.875 294.338 711.875 319.812V504.312C711.875 529.787 732.526 550.438 758 550.438H942.5C967.974 550.438 988.625 529.787 988.625 504.312V319.812C988.625 294.338 967.974 273.688 942.5 273.688Z" fill="#4DCCF0"/>
<path d="M635 335.188H266C240.526 335.188 219.875 355.838 219.875 381.312V442.812C219.875 468.287 240.526 488.938 266 488.938H635C660.474 488.938 681.125 468.287 681.125 442.812V381.312C681.125 355.838 660.474 335.188 635 335.188Z" fill="#4DCCF0"/>
<path d="M942.5 581.188H266C240.526 581.188 219.875 601.838 219.875 627.312V688.812C219.875 714.287 240.526 734.938 266 734.938H942.5C967.974 734.938 988.625 714.287 988.625 688.812V627.312C988.625 601.838 967.974 581.188 942.5 581.188Z" fill="#4DCCF0"/>
<path d="M942.5 827.188H266C240.526 827.188 219.875 847.838 219.875 873.312V934.812C219.875 960.287 240.526 980.938 266 980.938H942.5C967.974 980.938 988.625 960.287 988.625 934.812V873.312C988.625 847.838 967.974 827.188 942.5 827.188Z" fill="#4DCCF0"/>
<path d="M204.5 43.0625H81.5C69.2669 43.0625 57.5348 47.9221 48.8847 56.5722C40.2346 65.2223 35.375 76.9544 35.375 89.1875V212.188C35.375 224.421 40.2346 236.153 48.8847 244.803C57.5348 253.453 69.2669 258.312 81.5 258.312H204.5C216.733 258.312 228.465 253.453 237.115 244.803C245.765 236.153 250.625 224.421 250.625 212.188V89.1875C250.625 76.9544 245.765 65.2223 237.115 56.5722C228.465 47.9221 216.733 43.0625 204.5 43.0625V43.0625ZM219.875 212.188C219.875 216.265 218.255 220.176 215.372 223.059C212.488 225.943 208.578 227.562 204.5 227.562H81.5C77.4223 227.562 73.5116 225.943 70.6282 223.059C67.7449 220.176 66.125 216.265 66.125 212.188V89.1875C66.125 85.1098 67.7449 81.1991 70.6282 78.3157C73.5116 75.4324 77.4223 73.8125 81.5 73.8125H204.5C208.578 73.8125 212.488 75.4324 215.372 78.3157C218.255 81.1991 219.875 85.1098 219.875 89.1875V212.188Z" fill="#303030"/>
<path d="M204.5 319.812H81.5C69.2669 319.813 57.5348 324.672 48.8847 333.322C40.2346 341.972 35.375 353.704 35.375 365.938V488.938C35.375 501.171 40.2346 512.903 48.8847 521.553C57.5348 530.203 69.2669 535.062 81.5 535.062H204.5C216.733 535.062 228.465 530.203 237.115 521.553C245.765 512.903 250.625 501.171 250.625 488.938V365.938C250.625 353.704 245.765 341.972 237.115 333.322C228.465 324.672 216.733 319.813 204.5 319.812ZM219.875 488.938C219.875 493.015 218.255 496.926 215.372 499.809C212.488 502.693 208.578 504.312 204.5 504.312H81.5C77.4223 504.312 73.5116 502.693 70.6282 499.809C67.7449 496.926 66.125 493.015 66.125 488.938V365.938C66.125 361.86 67.7449 357.949 70.6282 355.066C73.5116 352.182 77.4223 350.562 81.5 350.562H204.5C208.578 350.562 212.488 352.182 215.372 355.066C218.255 357.949 219.875 361.86 219.875 365.938V488.938Z" fill="#303030"/>
<path d="M204.5 596.562H81.5C69.2669 596.562 57.5348 601.422 48.8847 610.072C40.2346 618.722 35.375 630.454 35.375 642.688V765.688C35.375 777.921 40.2346 789.653 48.8847 798.303C57.5348 806.953 69.2669 811.812 81.5 811.812H204.5C216.733 811.812 228.465 806.953 237.115 798.303C245.765 789.653 250.625 777.921 250.625 765.688V642.688C250.625 630.454 245.765 618.722 237.115 610.072C228.465 601.422 216.733 596.562 204.5 596.562ZM219.875 765.688C219.875 769.765 218.255 773.676 215.372 776.559C212.488 779.443 208.578 781.062 204.5 781.062H81.5C77.4223 781.062 73.5116 779.443 70.6282 776.559C67.7449 773.676 66.125 769.765 66.125 765.688V642.688C66.125 638.61 67.7449 634.699 70.6282 631.816C73.5116 628.932 77.4223 627.312 81.5 627.312H204.5C208.578 627.312 212.488 628.932 215.372 631.816C218.255 634.699 219.875 638.61 219.875 642.688V765.688Z" fill="#303030"/>
<path d="M296.75 119.938H788.75C792.828 119.938 796.738 118.318 799.622 115.434C802.505 112.551 804.125 108.64 804.125 104.562C804.125 100.485 802.505 96.5741 799.622 93.6907C796.738 90.8074 792.828 89.1875 788.75 89.1875H296.75C292.672 89.1875 288.762 90.8074 285.878 93.6907C282.995 96.5741 281.375 100.485 281.375 104.562C281.375 108.64 282.995 112.551 285.878 115.434C288.762 118.318 292.672 119.938 296.75 119.938Z" fill="#303030"/>
<path d="M296.75 212.188H665.75C669.828 212.188 673.738 210.568 676.622 207.684C679.505 204.801 681.125 200.89 681.125 196.812C681.125 192.735 679.505 188.824 676.622 185.941C673.738 183.057 669.828 181.438 665.75 181.438H296.75C292.672 181.438 288.762 183.057 285.878 185.941C282.995 188.824 281.375 192.735 281.375 196.812C281.375 200.89 282.995 204.801 285.878 207.684C288.762 210.568 292.672 212.188 296.75 212.188Z" fill="#303030"/>
<path d="M788.75 365.938H296.75C292.672 365.938 288.762 367.557 285.878 370.441C282.995 373.324 281.375 377.235 281.375 381.312C281.375 385.39 282.995 389.301 285.878 392.184C288.762 395.068 292.672 396.688 296.75 396.688H788.75C792.828 396.688 796.738 395.068 799.622 392.184C802.505 389.301 804.125 385.39 804.125 381.312C804.125 377.235 802.505 373.324 799.622 370.441C796.738 367.557 792.828 365.938 788.75 365.938Z" fill="#303030"/>
<path d="M296.75 488.938H665.75C669.828 488.938 673.738 487.318 676.622 484.434C679.505 481.551 681.125 477.64 681.125 473.562C681.125 469.485 679.505 465.574 676.622 462.691C673.738 459.807 669.828 458.188 665.75 458.188H296.75C292.672 458.188 288.762 459.807 285.878 462.691C282.995 465.574 281.375 469.485 281.375 473.562C281.375 477.64 282.995 481.551 285.878 484.434C288.762 487.318 292.672 488.938 296.75 488.938Z" fill="#303030"/>
<path d="M788.75 642.688H296.75C292.672 642.688 288.762 644.307 285.878 647.191C282.995 650.074 281.375 653.985 281.375 658.062C281.375 662.14 282.995 666.051 285.878 668.934C288.762 671.818 292.672 673.438 296.75 673.438H788.75C792.828 673.438 796.738 671.818 799.622 668.934C802.505 666.051 804.125 662.14 804.125 658.062C804.125 653.985 802.505 650.074 799.622 647.191C796.738 644.307 792.828 642.688 788.75 642.688Z" fill="#303030"/>
<path d="M665.75 734.938H296.75C292.672 734.938 288.762 736.557 285.878 739.441C282.995 742.324 281.375 746.235 281.375 750.312C281.375 754.39 282.995 758.301 285.878 761.184C288.762 764.068 292.672 765.688 296.75 765.688H665.75C669.828 765.688 673.738 764.068 676.622 761.184C679.505 758.301 681.125 754.39 681.125 750.312C681.125 746.235 679.505 742.324 676.622 739.441C673.738 736.557 669.828 734.938 665.75 734.938Z" fill="#303030"/>
</svg>
